<?xml version="1.0" encoding="utf-8"?>
<svg viewBox="0 6.692 146.272 55.45" xmlns="http://www.w3.org/2000/svg">
  <defs/>
  <path fill-rule="evenodd" clip-rule="evenodd" d="M 63.824 41.755 C 63.824 41.168 64.26 40.64 65.667 40.64 C 67.093 40.64 67.945 40.914 68.976 41.207 L 69.946 38.9 C 68.857 38.431 67.787 37.962 65.568 37.962 C 63.091 37.962 60.535 39.116 60.535 41.774 C 60.535 46.466 67.192 45.86 67.192 48.109 C 67.192 48.949 66.42 49.459 64.735 49.459 C 63.189 49.459 62.278 49.263 61.029 48.833 L 60.079 51.218 C 61.129 51.785 62.475 52.196 64.773 52.196 C 67.667 52.196 70.6 51.022 70.6 47.992 C 70.601 43.591 63.824 43.591 63.824 41.755 Z M 72.541 51.979 L 75.83 51.979 L 75.83 41.304 L 72.541 41.304 L 72.541 51.979 Z M 82.599 41.324 C 79.825 41.324 78.022 43.006 78.022 45.117 C 78.022 46.31 78.637 47.405 79.37 47.853 C 79.014 48.205 78.3 49.32 78.28 50.2 C 78.28 50.669 78.478 51.334 79.053 51.666 C 78.3 52.097 77.607 52.898 77.607 53.66 C 77.607 55.615 79.033 56.397 82.579 56.397 C 86.247 56.397 88.009 54.618 88.009 52.429 C 88.009 50.181 86.464 49.281 83.49 49.281 L 80.736 49.281 L 80.756 48.303 C 81.391 48.401 82.044 48.46 82.678 48.46 C 85.096 48.46 87.275 47.228 87.275 45.037 C 87.275 44.802 87.195 44.1 87.156 43.883 L 88.8 43.883 L 88.8 41.596 L 85.332 41.85 C 84.937 41.656 83.985 41.324 82.599 41.324 Z M 83.966 51.882 C 84.837 51.882 85.571 52.116 85.571 52.86 C 85.571 53.563 84.501 54.13 83.154 54.13 C 81.331 54.13 80.439 53.622 80.439 52.919 C 80.439 52.644 80.48 52.294 80.657 51.883 L 83.966 51.883 L 83.966 51.882 Z M 82.658 46.622 C 81.509 46.622 80.935 45.937 80.935 45.077 C 80.935 44.061 81.509 43.337 82.698 43.337 C 83.748 43.337 84.341 44.138 84.341 44.999 C 84.342 45.84 83.69 46.622 82.658 46.622 Z M 82.619 39.975 C 84.68 39.975 85.928 38.703 86.561 37.785 L 84.956 36.357 C 84.282 37.042 83.53 37.57 82.698 37.57 C 81.846 37.57 81.052 37.023 80.339 36.357 L 78.636 37.804 C 79.231 38.743 80.458 39.975 82.619 39.975 Z M 95.241 41.031 C 91.813 41.031 89.575 43.201 89.575 46.74 C 89.575 50.083 91.496 52.213 95.064 52.213 C 98.391 52.213 100.809 50.279 100.809 46.642 C 100.808 43.162 99.084 41.031 95.241 41.031 Z M 95.219 49.614 C 93.457 49.614 92.903 48.5 92.903 46.661 C 92.903 44.922 93.398 43.612 95.182 43.612 C 97.005 43.612 97.441 44.922 97.441 46.643 C 97.441 48.461 97.005 49.614 95.219 49.614 Z M 105.702 42.731 L 105.702 41.304 L 102.393 41.304 L 102.393 51.979 L 105.702 51.979 L 105.702 44.745 C 106.137 44.276 107.128 43.826 108.098 43.826 C 108.693 43.826 108.911 43.826 109.545 43.943 L 109.981 41.265 C 109.525 41.127 109.089 41.089 108.494 41.089 C 107.247 41.089 106.237 42.048 105.702 42.731 Z M 117.078 49.477 C 116.186 49.477 115.889 49.419 115.889 48.636 L 115.889 43.709 L 119.237 43.709 L 119.237 41.304 L 115.889 41.304 L 115.889 39.114 L 112.6 39.114 L 112.6 41.304 L 111.014 41.304 L 111.014 43.709 L 112.6 43.709 L 112.6 48.656 C 112.6 52.293 115.036 52.194 117.117 52.194 C 117.908 52.194 118.96 52.037 119.732 51.823 L 119.415 49.262 C 119.416 49.262 117.811 49.477 117.078 49.477 Z M 130.54 49.144 L 130.54 44.394 C 130.54 41.989 129.193 41.05 125.845 41.05 C 124.121 41.05 122.695 41.441 121.466 41.911 L 122.12 44.277 C 123.131 44.042 124.28 43.808 125.35 43.808 C 126.698 43.808 127.311 44.081 127.311 45.02 L 127.311 45.685 L 125.43 45.685 C 123.29 45.685 120.793 46.232 120.793 48.93 C 120.793 51.061 122.14 52.156 124.517 52.156 C 125.706 52.156 126.836 51.549 127.629 50.943 C 127.926 51.862 129.314 52.077 130.621 52.077 C 130.878 52.077 131.135 52.077 131.393 52.058 L 131.512 49.594 C 130.897 49.575 130.54 49.496 130.54 49.144 Z M 127.31 49.262 C 126.597 49.458 125.844 49.633 125.209 49.633 C 124.615 49.633 124.001 49.36 124.001 48.734 C 124.001 47.951 124.715 47.639 125.685 47.619 L 127.31 47.58 L 127.31 49.262 Z" fill="#009DC8"/>
  <path fill-rule="evenodd" clip-rule="evenodd" d="M 66.279 18.031 L 60.857 18.031 L 60.857 31.784 L 64.229 31.784 L 64.229 27.894 L 65.254 27.894 C 69.413 27.894 71.661 25.617 71.661 22.913 C 71.661 19.841 69.413 18.031 66.279 18.031 Z M 65.371 25.346 L 64.228 25.346 L 64.228 20.618 L 65.844 20.618 C 67.639 20.618 68.209 21.611 68.209 22.992 C 68.21 24.276 67.462 25.346 65.371 25.346 Z M 105.594 18.031 L 101.02 18.031 L 96.328 31.784 L 99.798 31.784 L 101.118 27.758 L 105.495 27.758 L 106.816 31.784 L 110.285 31.784 L 105.594 18.031 Z M 101.907 25.365 L 103.306 20.073 L 104.707 25.365 L 101.907 25.365 Z M 75.483 18.031 L 70.791 31.785 L 74.262 31.785 L 75.582 27.759 L 79.96 27.759 L 81.28 31.785 L 84.751 31.785 L 80.059 18.032 L 75.483 18.032 L 75.483 18.031 Z M 76.372 25.365 L 77.772 20.073 L 79.17 25.365 L 76.372 25.365 Z M 89.134 21.628 C 89.134 21.042 89.569 20.513 90.977 20.513 C 92.402 20.513 93.255 20.786 94.286 21.079 L 95.257 18.773 C 94.167 18.304 93.097 17.834 90.878 17.834 C 88.401 17.834 85.846 18.988 85.846 21.646 C 85.846 26.339 92.504 25.732 92.504 27.98 C 92.504 28.821 91.73 29.33 90.047 29.33 C 88.502 29.33 87.59 29.134 86.341 28.704 L 85.391 31.088 C 86.337 31.6 87.529 31.98 89.434 32.051 C 89.528 32.397 89.63 32.765 89.63 33.104 C 89.63 33.789 88.621 34.178 88.125 34.473 L 89.253 36.428 C 90.502 35.919 92.386 35.059 92.386 33.475 C 92.386 32.928 92.167 32.38 91.948 31.892 L 91.928 31.892 C 94.104 31.471 95.912 30.242 95.912 27.863 C 95.91 23.465 89.134 23.466 89.134 21.628 Z" fill="#007A5F"/>
  <path fill-rule="evenodd" clip-rule="evenodd" d="M 38.668 18.029 L 47.125 18.03 L 47.126 31.763 L 33.393 31.762 L 33.393 28.666 L 40.979 21.082 L 41.35 20.712 L 38.668 18.029 Z" fill="#007A5F"/>
  <path fill-rule="evenodd" clip-rule="evenodd" d="M 30.155 11.002 L 39.866 20.713 L 30.155 30.421 L 27.966 28.233 L 27.966 16.981 L 24.176 16.981 L 30.155 11.002 Z" fill="#009DC8"/>
  <path fill-rule="evenodd" clip-rule="evenodd" d="M 13.187 18.029 L 13.187 26.488 L 15.495 24.178 L 15.867 23.808 L 23.82 31.763 L 26.919 31.763 L 26.919 18.03 L 13.187 18.029 Z" fill="#007A5F"/>
  <path fill-rule="evenodd" clip-rule="evenodd" d="M 6.156 35 L 15.867 25.291 L 25.577 35 L 23.387 37.19 L 12.136 37.19 L 12.136 40.981 L 6.156 35 Z" fill="#009DC8"/>
  <path fill-rule="evenodd" clip-rule="evenodd" d="M 13.187 51.972 L 13.187 38.24 L 26.919 38.241 L 26.919 41.338 L 19.334 48.922 L 18.963 49.293 L 19.334 49.663 L 21.643 51.972 L 13.187 51.972 Z" fill="#007A5F"/>
  <path fill-rule="evenodd" clip-rule="evenodd" d="M 30.158 59.001 L 20.447 49.291 L 30.157 39.58 L 32.343 41.769 L 32.343 53.022 L 36.138 53.021 L 30.158 59.001 Z" fill="#009DC8"/>
  <path fill-rule="evenodd" clip-rule="evenodd" d="M 47.125 51.972 L 33.392 51.971 L 33.393 38.24 L 36.489 38.24 L 44.074 45.824 L 44.445 46.195 L 44.817 45.824 L 47.125 43.515 L 47.125 51.972 Z" fill="#007A5F"/>
  <path fill-rule="evenodd" clip-rule="evenodd" d="M 44.446 44.711 L 34.737 35.002 L 36.927 32.813 L 48.175 32.812 L 48.175 29.021 L 54.155 35.002 L 44.446 44.711 Z" fill="#009DC8"/>
</svg>